<?xml version="1.0" encoding="UTF-8"?>
<svg id="Layer_2" data-name="Layer 2" xmlns="http://www.w3.org/2000/svg" width="31" height="31" viewBox="0 0 31 31">
  <g id="Layer_1-2" data-name="Layer 1">
    <g>
      <circle cx="15.5" cy="15.5" r="15.5" style="fill: #ffc717;"/>
      <g>
        <path d="M9.3,23.3c.7,0,1.4-.3,1.7-.7.4-.5.6-1.2.6-3.3v-7.3h1.6v7.9c0,1.7-.3,2.8-1,3.6-.7.7-1.9,1-2.7,1l-.2-1.2ZM13.4,9.6c0,.5-.4,1-1,1s-1-.5-1-1,.4-1,1-1,1,.4,1,1Z"/>
        <path d="M15.6,19.2c.5.3,1.3.6,2.1.6,1.2,0,1.7-.6,1.7-1.3s-.5-1.2-1.6-1.6c-1.6-.6-2.3-1.4-2.3-2.5s1.1-2.6,3-2.6,1.7.3,2.1.5l-.4,1.2c-.3-.2-1-.5-1.8-.5s-1.5.5-1.5,1.2.5,1,1.7,1.5c1.5.6,2.3,1.3,2.3,2.6s-1.2,2.6-3.3,2.6-1.8-.2-2.5-.6l.4-1.2Z"/>
      </g>
    </g>
  </g>
</svg>