<?xml version="1.0" encoding="UTF-8"?>
<svg id="Layer_2" data-name="Layer 2" xmlns="http://www.w3.org/2000/svg" width="31" height="31" viewBox="0 0 31 31">
  <g id="Layer_1-2" data-name="Layer 1">
    <g>
      <circle cx="15.5" cy="15.5" r="15.5" style="fill: #ff6a5c;"/>
      <g>
        <path d="M7.5,17.9c.3.2.9.4,1.4.4.8,0,1.1-.4,1.1-.9s-.3-.8-1.1-1.1c-1-.4-1.5-.9-1.5-1.6s.8-1.7,2-1.7,1.1.2,1.4.4l-.3.8c-.2-.1-.6-.3-1.2-.3s-1,.4-1,.8.3.7,1.1,1c1,.4,1.5.9,1.5,1.8s-.8,1.7-2.2,1.7-1.2-.2-1.6-.4l.3-.8Z"/>
        <path d="M12.8,13.2l.8,3c.2.6.3,1.2.4,1.8h0c.1-.6.3-1.2.5-1.8l.9-3h.9l.9,2.9c.2.7.4,1.3.5,1.9h0c0-.6.3-1.2.4-1.9l.8-2.9h1l-1.9,5.8h-1l-.9-2.8c-.2-.6-.4-1.2-.5-1.9h0c-.1.7-.3,1.3-.5,1.9l-.9,2.8h-1l-1.8-5.8h1.1Z"/>
        <path d="M21.3,19v-5h-.8v-.8h.8v-.3c0-.8.2-1.6.7-2,.4-.4.9-.5,1.4-.5s.7,0,.9.2v.8c-.3,0-.5-.1-.8-.1-.9,0-1.1.8-1.1,1.7v.3h1.4v.8h-1.4v5h-1Z"/>
      </g>
    </g>
  </g>
</svg>