<?xml version="1.0" encoding="UTF-8"?>
<svg id="Layer_2" data-name="Layer 2" xmlns="http://www.w3.org/2000/svg" width="122.4" height="40" viewBox="0 0 122.4 40">
  <g id="Layer_1-2" data-name="Layer 1">
    <g>
      <rect width="122.4" height="40" rx="13.5" ry="13.5" style="fill: #ff8383;"/>
      <g>
        <path d="M17.3,12.3v8.1c0,3,1.4,4.3,3.2,4.3s3.3-1.3,3.3-4.3v-8.1h1.8v7.9c0,4.2-2.2,5.9-5.1,5.9s-4.9-1.6-4.9-5.8v-8h1.8Z" style="fill: #910000;"/>
        <path d="M28.6,25.9v-13.6h1.9l4.4,6.9c1,1.6,1.8,3,2.4,4.4h0c-.2-1.8-.2-3.5-.2-5.6v-5.7h1.7v13.6h-1.8l-4.3-6.9c-.9-1.5-1.9-3.1-2.5-4.5h0c.1,1.7.1,3.4.1,5.6v5.8h-1.7Z" style="fill: #910000;"/>
        <path d="M43.7,12.3v13.6h-1.8v-13.6h1.8Z" style="fill: #910000;"/>
        <path d="M46.7,25.9v-13.6h1.9l4.4,6.9c1,1.6,1.8,3,2.4,4.4h0c-.2-1.8-.2-3.5-.2-5.6v-5.7h1.7v13.6h-1.8l-4.3-6.9c-.9-1.5-1.9-3.1-2.5-4.5h0c.1,1.7.1,3.4.1,5.6v5.8h-1.7Z" style="fill: #910000;"/>
        <path d="M59.8,23.8c.8.5,1.9.9,3.1.9,1.8,0,2.8-.9,2.8-2.3s-.7-2-2.6-2.7c-2.2-.8-3.6-1.9-3.6-3.9s1.8-3.7,4.4-3.7,2.4.3,3,.7l-.5,1.4c-.4-.2-1.4-.6-2.6-.6-1.9,0-2.6,1.1-2.6,2s.8,1.9,2.7,2.6c2.3.9,3.5,2,3.5,4s-1.6,3.9-4.8,3.9-2.7-.4-3.5-.9l.4-1.5Z" style="fill: #910000;"/>
        <path d="M72.6,13.8h-4.1v-1.5h10.1v1.5h-4.2v12.1h-1.8v-12.1Z" style="fill: #910000;"/>
        <path d="M80.7,21.6l-1.4,4.3h-1.8l4.6-13.6h2.1l4.6,13.6h-1.9l-1.5-4.3h-4.8ZM85.2,20.3l-1.3-3.9c-.3-.9-.5-1.7-.7-2.5h0c-.2.8-.4,1.6-.7,2.5l-1.3,3.9h4.1Z" style="fill: #910000;"/>
        <path d="M90.8,12.3h1.8v12.1h5.8v1.5h-7.6v-13.6Z" style="fill: #910000;"/>
        <path d="M100.4,12.3h1.8v12.1h5.8v1.5h-7.6v-13.6Z" style="fill: #910000;"/>
      </g>
    </g>
  </g>
</svg>