<?xml version="1.0" encoding="UTF-8"?>
<svg id="Layer_2" data-name="Layer 2" xmlns="http://www.w3.org/2000/svg" width="122.4" height="40" viewBox="0 0 122.4 40">
  <g id="Layer_1-2" data-name="Layer 1">
    <g>
      <rect x="0" width="122.4" height="40" rx="13.5" ry="13.5" style="fill: #78a878;"/>
      <g>
        <path d="M30.6,12.3v8.1c0,3,1.4,4.3,3.2,4.3s3.3-1.3,3.3-4.3v-8.1h1.8v7.9c0,4.2-2.2,5.9-5.1,5.9s-4.9-1.6-4.9-5.8v-8h1.8Z" style="fill: #415e4e;"/>
        <path d="M41.9,12.5c.8-.1,2-.3,3.4-.3s3,.4,3.8,1.1c.7.6,1.2,1.6,1.2,2.8s-.4,2.2-1,2.9c-.9,1-2.4,1.5-4.2,1.5s-1,0-1.4-.1v5.5h-1.8v-13.4ZM43.7,19c.4.1.9.1,1.5.1,2.1,0,3.4-1,3.4-2.9s-1.3-2.7-3.2-2.7-1.4,0-1.7.1v5.3Z" style="fill: #415e4e;"/>
        <path d="M52.7,12.5c1.1-.2,2.3-.3,3.7-.3,2.5,0,4.3.6,5.5,1.7,1.2,1.1,1.9,2.7,1.9,4.9s-.7,4-2,5.3c-1.3,1.3-3.4,2-6,2s-2.3,0-3.2-.2v-13.4ZM54.4,24.5c.4,0,1.1.1,1.8.1,3.8,0,5.8-2.1,5.8-5.8,0-3.2-1.8-5.2-5.5-5.2s-1.6,0-2.1.2v10.7Z" style="fill: #415e4e;"/>
        <path d="M68,21.6l-1.4,4.3h-1.8l4.6-13.6h2.1l4.6,13.6h-1.9l-1.5-4.3h-4.8ZM72.5,20.3l-1.3-3.9c-.3-.9-.5-1.7-.7-2.5h0c-.2.8-.4,1.6-.7,2.5l-1.3,3.9h4.1Z" style="fill: #415e4e;"/>
        <path d="M79.2,13.8h-4.1v-1.5h10.1v1.5h-4.2v12.1h-1.8v-12.1Z" style="fill: #415e4e;"/>
        <path d="M93.7,19.5h-5.3v4.9h5.9v1.5h-7.7v-13.6h7.3v1.5h-5.6v4.3h5.3v1.5Z" style="fill: #415e4e;"/>
      </g>
    </g>
  </g>
</svg>