
<svg xmlns="http://www.w3.org/2000/svg" version="1.1" xmlns:xlink="http://www.w3.org/1999/xlink" preserveAspectRatio="none" x="0px" y="0px" width="128px" height="128px" viewBox="0 0 128 128">
<defs>
<radialGradient id="Gradient_1" gradientUnits="userSpaceOnUse" cx="0" cy="0" r="59.050000000000004" fx="0" fy="0" gradientTransform="matrix( 1, 0, 0, 1, 0,0) " spreadMethod="pad">
<stop  offset="0%" stop-color="#FFFFFF"/>

<stop  offset="92.54901960784314%" stop-color="#970202"/>

<stop  offset="100%" stop-color="#FFD1D1"/>
</radialGradient>

<g id="Symbol_1_5_Layer1_0_FILL">
<path fill="url(#Gradient_1)" stroke="none" d="
M 40.65 -40.65
Q 23.85 -57.5 0 -57.5 -23.85 -57.5 -40.7 -40.65 -57.5 -23.85 -57.5 0 -57.5 23.85 -40.7 40.7 -23.85 57.5 0 57.5 23.85 57.5 40.65 40.7 57.5 23.85 57.5 0 57.5 -23.85 40.65 -40.65 Z"/>
</g>

<g id="Symbol_1_5_Layer0_0_FILL">
<path fill="#FFFFFF" stroke="none" d="
M 27.9 -22.9
L 22.65 -28.15 -0.4 -5.1 -23.4 -28.1 -28.65 -22.85 -5.65 0.15 -28.65 23.15 -23.4 28.4 -0.4 5.4 22.65 28.45 27.9 23.2 4.85 0.15 27.9 -22.9 Z"/>
</g>
</defs>

<g transform="matrix( 1, 0, 0, 1, 63.95,64) ">
<g transform="matrix( 1, 0, 0, 1, 0,0) ">
<use xlink:href="#Symbol_1_5_Layer1_0_FILL"/>
</g>

<g transform="matrix( 1, 0, 0, 1, 0,0) ">
<use xlink:href="#Symbol_1_5_Layer0_0_FILL"/>
</g>
</g>
</svg>
