<?xml version="1.0" encoding="UTF-8"?>
<svg id="Layer_1" data-name="Layer 1" xmlns="http://www.w3.org/2000/svg" width="256" height="256" viewBox="0 0 256 256">
  <rect width="256" height="256" rx="37.6" ry="37.6" style="fill: #000d73;"/>
  <g>
    <path d="M200.9,134.9l21.8-9.6c-1-8.6-1-8-2-16.6l-23.5-4.1c-.7-1.9-.9-2.4-1.6-4.2l14.9-18.6c-4.9-7.2-4.6-6.7-9.5-13.8l-22.7,7.3c-1.5-1.3-1.9-1.7-3.4-3l4.5-23.4c-7.7-4-7.2-3.8-14.9-7.8l-16.7,17c-1.9-.5-2.5-.6-4.4-1.1l-6.9-22.8h-16.8l-6.9,22.8c-1.9.5-2.4.6-4.4,1.1l-16.7-17c-7.7,4.1-7.2,3.8-14.9,7.8l4.5,23.4c-1.5,1.3-1.9,1.7-3.4,3l-22.7-7.3c-4.9,7.2-4.6,6.7-9.5,13.8l14.9,18.6c-.7,1.9-.9,2.4-1.6,4.2l-23.5,4.1c-1,8.6-1,8-2,16.6l21.8,9.6c.3,2,.3,2.5.6,4.5l-18.9,14.6c3.1,8.1,2.9,7.6,5.9,15.7l23.8-1.6c1.1,1.6,1.4,2.1,2.6,3.7l-10,21.7c6.5,5.7,6.1,5.4,12.6,11.1l20.3-12.5c1.8.9,2.3,1.2,4,2.1l1.2,23.8c8.4,2.1,7.9,1.9,16.3,4l12.2-20.5h4.5l12.2,20.5c8.4-2.1,7.9-1.9,16.3-4l1.3-23.8c1.8-.9,2.2-1.2,4-2.1l20.3,12.5c6.5-5.8,6.1-5.4,12.6-11.1l-10-21.7c1.1-1.6,1.4-2.1,2.6-3.7l23.8,1.6c3.1-8.1,2.9-7.6,5.9-15.7l-18.9-14.6c.3-2,.3-2.5.6-4.5ZM128,189.7c-34.1,0-61.8-27.6-61.8-61.8s27.6-61.8,61.8-61.8,61.8,27.6,61.8,61.8-27.7,61.8-61.8,61.8Z" style="fill: #5c5cff;"/>
    <path d="M128,69.7c-32.2,0-58.2,26.1-58.2,58.2s26.1,58.2,58.2,58.2,58.3-26.1,58.3-58.2-26.1-58.2-58.3-58.2ZM128,168.7c-22.5,0-40.7-18.2-40.7-40.7s18.2-40.7,40.7-40.7,40.7,18.2,40.7,40.7-18.2,40.7-40.7,40.7Z" style="fill: #5c5cff;"/>
  </g>
  <g>
    <path d="M100.8,128.9c0-9.6,6.6-15.1,14.3-15.1s7.3,1.8,9.4,3.8l-4,4.9c-1.4-1.2-2.8-2.1-5.1-2.1-3.9,0-6.8,3.1-6.8,8.3s2.4,8.4,7.5,8.4,1.7-.2,2.2-.5v-4h-4.2v-6.2h11v13.7c-2,1.9-5.7,3.5-9.7,3.5-8,0-14.5-4.9-14.5-14.7Z" style="fill: #5c5cff;"/>
    <path d="M130.6,114.3h7.8l6.4,12.8,2.7,6.5h.2c-.4-3.1-1-7.4-1-11v-8.3h7.2v28.7h-7.8l-6.4-12.9-2.7-6.4h-.2c.4,3.3,1,7.4,1,11v8.3h-7.2v-28.7Z" style="fill: #5c5cff;"/>
  </g>
</svg>